<?xml version="1.0" standalone="no"?>
<!DOCTYPE svg PUBLIC "-//W3C//DTD SVG 20010904//EN"
 "http://www.w3.org/TR/2001/REC-SVG-20010904/DTD/svg10.dtd">
<svg version="1.0" xmlns="http://www.w3.org/2000/svg"
 width="700.000000pt" height="700.000000pt" viewBox="0 0 700.000000 700.000000"
 preserveAspectRatio="xMidYMid meet">
<metadata>
Created by potrace 1.14, written by Peter Selinger 2001-2017
</metadata>
<g transform="translate(0.000000,700.000000) scale(0.100000,-0.100000)"
fill="#000000" stroke="none">
<path d="M2159 5860 c-40 -11 -75 -37 -89 -68 -16 -33 -24 -413 -9 -482 5 -25
10 -81 12 -125 4 -88 19 -124 63 -143 45 -21 91 -15 126 17 31 28 33 33 41
132 15 177 19 560 7 590 -25 58 -93 94 -151 79z"/>
<path d="M2985 5403 c-129 -25 -259 -114 -323 -222 -51 -87 -70 -159 -68 -257
l1 -91 -65 32 c-448 222 -994 -39 -1110 -530 -22 -92 -22 -285 0 -370 17 -65
79 -201 121 -261 44 -65 138 -156 204 -200 30 -20 55 -38 55 -39 0 -1 -15 -35
-34 -76 -54 -118 -70 -197 -70 -339 0 -229 75 -408 236 -568 168 -166 343
-232 618 -232 l141 0 -6 -22 c-30 -101 -62 -181 -79 -200 l-21 -23 -5 82 c-3
45 -9 87 -15 92 -18 18 -69 21 -90 5 -16 -12 -21 -30 -25 -94 l-5 -79 -54 49
c-58 55 -66 57 -99 34 -37 -26 -28 -59 33 -123 l55 -58 -81 0 c-88 0 -109 -11
-109 -59 0 -36 25 -47 111 -48 43 -1 79 -2 79 -3 0 0 -25 -27 -55 -58 -59 -60
-68 -90 -37 -118 30 -27 50 -20 108 34 l54 52 0 -77 c0 -84 18 -116 63 -116
47 1 62 25 67 110 l5 80 52 -50 c44 -41 58 -49 88 -48 19 1 37 -1 40 -4 3 -3
2 -31 -3 -62 -11 -69 6 -110 55 -136 l31 -17 -16 -34 c-8 -19 -17 -36 -19 -38
-2 -3 -17 3 -34 13 -39 23 -114 24 -156 3 -130 -68 -112 -282 27 -312 29 -6
29 -7 16 -39 l-14 -33 55 -33 54 -33 65 69 c35 38 64 71 64 74 0 3 12 19 28
36 15 17 45 52 67 80 21 27 46 56 55 64 8 8 28 30 43 48 15 19 27 30 28 25 4
-45 61 -146 92 -161 52 -26 87 -18 150 34 98 80 113 184 41 264 -32 35 -88 60
-117 52 -16 -5 15 39 39 54 19 13 28 14 37 5 16 -16 62 -14 77 4 11 13 15 13
33 0 12 -8 30 -15 40 -15 24 0 70 47 62 63 -4 6 2 2 12 -10 10 -12 30 -26 45
-32 24 -9 25 -13 19 -44 -18 -77 46 -154 118 -142 62 10 93 53 106 152 7 51 7
51 26 32 27 -27 73 -25 96 5 15 18 19 40 19 90 -1 36 1 66 4 66 3 0 27 -21 53
-45 41 -39 53 -45 92 -45 38 0 50 6 97 50 l53 50 5 -81 c5 -86 19 -109 65
-109 46 0 60 23 65 111 l5 83 45 -48 c52 -55 82 -66 110 -41 33 30 25 62 -30
117 -27 27 -50 53 -50 56 0 4 33 7 74 7 83 1 106 13 106 55 0 42 -21 52 -109
53 l-80 1 54 57 c69 73 74 119 14 134 -22 5 -35 -2 -80 -44 l-54 -51 -3 74
c-2 56 -7 78 -21 90 -29 26 -65 28 -89 5 -19 -17 -22 -31 -22 -94 0 -41 -2
-75 -4 -75 -2 0 -27 23 -55 51 -44 44 -56 50 -79 44 -25 -6 -26 -5 -10 12 29
33 30 58 3 85 l-25 25 39 11 c21 7 75 12 120 12 338 0 698 217 866 522 84 153
119 287 119 461 l1 117 35 5 c143 22 324 85 381 132 21 18 29 34 29 58 0 52
-8 63 -80 111 -443 292 -471 946 -54 1271 125 97 134 108 134 145 0 51 -25 77
-114 118 -134 63 -237 84 -406 84 -213 0 -359 -43 -526 -153 -192 -128 -318
-289 -390 -498 -29 -84 -34 -92 -39 -67 -34 158 -108 277 -229 368 -118 89
-275 125 -441 102 l-50 -7 -18 56 c-9 31 -33 80 -51 109 -22 35 -34 65 -34 89
0 44 -25 89 -62 111 -31 18 -110 22 -126 6 -7 -7 -25 -6 -56 4 -43 13 -157 18
-203 9z m1072 -3238 c-26 -25 -48 -45 -50 -45 -1 0 -2 16 -3 35 0 32 2 35 40
44 23 5 45 9 50 10 5 1 -12 -19 -37 -44z m-187 -21 c0 -22 -2 -25 -15 -14 -12
10 -13 16 -4 26 16 20 19 18 19 -12z m-1163 -358 c-2 -6 0 -19 5 -28 13 -26 6
-22 -30 15 l-33 34 31 -5 c17 -2 29 -9 27 -16z m1499 -20 c-31 -32 -45 -39
-30 -14 5 7 9 21 10 31 2 25 2 25 28 20 l24 -5 -32 -32z"/>
<path d="M1003 5380 c-34 -20 -52 -47 -59 -87 -11 -60 6 -85 165 -246 86 -88
170 -166 186 -174 17 -8 55 -40 86 -70 48 -47 64 -56 103 -60 42 -5 48 -3 81
30 30 30 35 42 35 82 0 43 -4 51 -59 108 -32 34 -66 76 -74 92 -16 31 -282
298 -327 328 -33 23 -98 21 -137 -3z"/>
<path d="M4197 5285 c-23 -47 -34 -58 -77 -77 -27 -12 -50 -24 -50 -27 0 -3
23 -19 50 -34 40 -23 56 -40 79 -84 l28 -56 32 56 c24 42 45 64 82 84 27 16
49 31 49 34 0 3 -23 16 -50 29 -40 19 -57 35 -81 77 -17 29 -31 53 -33 53 -1
0 -14 -25 -29 -55z"/>
<path d="M5943 4409 c-20 -37 -40 -58 -71 -75 -24 -12 -46 -25 -49 -27 -2 -3
18 -18 46 -34 40 -22 57 -40 78 -80 14 -29 30 -50 34 -47 5 2 21 27 36 54 15
27 39 54 53 60 14 6 36 19 49 29 l25 19 -52 26 c-39 20 -61 40 -83 76 -17 28
-32 50 -34 50 -2 0 -16 -23 -32 -51z"/>
<path d="M551 4272 c-101 -55 -86 -207 23 -241 36 -11 412 -7 562 6 114 10
148 25 170 78 18 44 9 87 -27 121 -26 25 -40 29 -127 37 -53 5 -203 11 -332
13 -215 4 -238 3 -269 -14z"/>
<path d="M1427 3550 c-14 -11 -46 -40 -71 -65 -26 -25 -52 -45 -59 -45 -19 0
-335 -322 -347 -353 -14 -39 -13 -63 6 -103 31 -65 111 -92 174 -59 34 18 314
295 339 335 9 15 42 55 74 90 54 59 62 76 58 125 -7 80 -111 125 -174 75z"/>
<path d="M3757 1265 c-55 -14 -89 -42 -113 -94 -9 -20 -29 -46 -44 -59 -37
-29 -48 -88 -25 -132 19 -37 73 -63 113 -54 15 4 54 8 88 9 62 3 107 19 136
52 28 31 48 90 44 131 -10 108 -98 173 -199 147z"/>
</g>
</svg>
